# xmcd CD database file
#
# Track frame offsets:
#	150
#	15631
#	31206
#	46260
#	61391
#	76316
#	89573
#	103229
#	117021
#	130211
#	143818
#	157524
#	170711
#	184192
#	199411
#	214809
#	227806
#	239983
#	252152
#	265320
#	278966
#	292868
#	305939
#	321379
#
# Disc length: 4476 seconds
#
# Revision: 0
# Processed by: cddbd v1.4PL0 Copyright (c) Steve Scherf et al.
# Submitted via: CDex 1.50
#
DISCID=69117a18
DTITLE=Duke Ellington - Vol 10 - 1930
DYEAR=1998
DGENRE=Jazz
TTITLE0=The Mooche
TTITLE1=The Mooche
TTITLE2=Ragamuffin Romeo
TTITLE3=East St-Louis Toodle-Oo
TTITLE4=East St-Louis Toodle-Oo
TTITLE5=Double Check Stomp
TTITLE6=My Gal Is Good For Nothing But Love
TTITLE7=I Was Made To Love You
TTITLE8=Double Check Stomp
TTITLE9=Accordion Joe
TTITLE10=Accordion Joe
TTITLE11=unknown title
TTITLE12=unknown title
TTITLE13=Sweet Dreams Of Love
TTITLE14=Sweet Dreams Of Love
TTITLE15=Jungle Nights In Harlem
TTITLE16=Sweet Jazz O' Mine
TTITLE17=Sweet Jazz O' Mine
TTITLE18=Shout 'Em Aunt Tillie
TTITLE19=Sweet Mama
TTITLE20=Sweet Mama
TTITLE21=Hot And Bothered
TTITLE22=Double Check Stomp
TTITLE23=Black And Tan Fantasy
EXTD=YEAR: 1998
EXTT0=
EXTT1=
EXTT2=
EXTT3=
EXTT4=
EXTT5=
EXTT6=
EXTT7=
EXTT8=
EXTT9=
EXTT10=
EXTT11=
EXTT12=
EXTT13=
EXTT14=
EXTT15=
EXTT16=
EXTT17=
EXTT18=
EXTT19=
EXTT20=
EXTT21=
EXTT22=
EXTT23=
PLAYORDER=
